<svg width="134" height="152" viewBox="0 0 134 152" fill="none" xmlns="http://www.w3.org/2000/svg">
<path d="M103.572 116.516L77.8787 142.21C75.9081 144.189 73.566 145.76 70.9868 146.832C68.4076 147.903 65.6421 148.455 62.8491 148.455C60.0561 148.455 57.2906 147.903 54.7114 146.832C52.1322 145.76 49.79 144.189 47.8195 142.21L10.2448 104.637C8.26556 102.666 6.695 100.324 5.62334 97.745C4.55167 95.1658 4 92.4003 4 89.6072C4 86.8142 4.55167 84.0487 5.62334 81.4695C6.695 78.8902 8.26556 76.5481 10.2448 74.5774L47.8195 37.0024C49.79 35.0231 52.1322 33.4525 54.7114 32.3808C57.2906 31.3092 60.0561 30.7575 62.8491 30.7575C65.6421 30.7575 68.4076 31.3092 70.9868 32.3808C73.566 33.4525 75.9081 35.0231 77.8787 37.0024L106.131 65.2538" stroke="white" stroke-width="7" stroke-linecap="round" stroke-linejoin="round"/>
<path d="M47.8195 37.0024L81.1834 4" stroke="white" stroke-width="7" stroke-linecap="round" stroke-linejoin="round"/>
<path d="M50.8815 89.5315H130.48" stroke="white" stroke-width="7" stroke-linecap="round" stroke-linejoin="round"/>
</svg>
