<svg width="118" height="122" viewBox="0 0 118 122" fill="none" xmlns="http://www.w3.org/2000/svg">
<path d="M90.5981 92.7949L68.2525 113.072C66.5387 114.634 64.5017 115.873 62.2586 116.719C60.0154 117.565 57.6103 118 55.1812 118C52.7521 118 50.347 117.565 48.1038 116.719C45.8607 115.873 43.8237 114.634 42.1099 113.072L9.43116 83.42C7.70977 81.8648 6.34385 80.0164 5.41182 77.981C4.47979 75.9455 4 73.763 4 71.5589C4 69.3547 4.47979 67.1722 5.41182 65.1368C6.34385 63.1013 7.70977 61.2529 9.43116 59.6978L42.1099 30.0446C43.8237 28.4826 45.8607 27.2431 48.1038 26.3974C50.347 25.5516 52.7521 25.1163 55.1812 25.1163C57.6103 25.1163 60.0154 25.5516 62.2586 26.3974C64.5017 27.2431 66.5387 28.4826 68.2525 30.0446L92.8234 52.3398" stroke="white" stroke-width="7" stroke-linecap="round" stroke-linejoin="round"/>
<path d="M42.1099 30.0446L71.1266 4" stroke="white" stroke-width="7" stroke-linecap="round" stroke-linejoin="round"/>
<path d="M44.773 71.4991H114" stroke="white" stroke-width="7" stroke-linecap="round" stroke-linejoin="round"/>
</svg>
